<?xml version="1.0" standalone="no"?>
<!DOCTYPE svg PUBLIC "-//W3C//DTD SVG 20010904//EN"
 "http://www.w3.org/TR/2001/REC-SVG-20010904/DTD/svg10.dtd">
<svg version="1.0" xmlns="http://www.w3.org/2000/svg"
 width="600.000000pt" height="287.000000pt" viewBox="0 0 600.000000 287.000000"
 preserveAspectRatio="xMidYMid meet">
<g transform="translate(0.000000,287.000000) scale(0.100000,-0.100000)"
fill="#000000" stroke="none">
<path d="M2655 2809 c-407 -42 -824 -162 -1211 -348 -327 -158 -674 -385 -959
-630 -109 -93 -311 -292 -362 -357 l-32 -40 98 -110 c226 -252 619 -560 965
-759 508 -290 1074 -473 1584 -511 l92 -7 0 35 0 35 -72 12 c-671 110 -1443
586 -1958 1208 l-79 96 22 31 c49 69 170 207 268 306 500 506 1165 875 1747
970 l72 12 0 34 0 34 -47 -1 c-27 -1 -84 -5 -128 -10z"/>
<path d="M3160 2786 l0 -34 73 -12 c468 -76 999 -335 1457 -709 186 -152 471
-443 566 -580 12 -17 5 -29 -68 -117 -188 -227 -483 -497 -743 -679 -386 -270
-840 -468 -1207 -526 l-78 -12 0 -33 c0 -40 -1 -40 161 -24 733 73 1477 398
2122 928 131 108 339 308 414 398 l43 52 -103 113 c-215 238 -555 509 -909
726 -141 86 -437 234 -583 291 -331 130 -651 208 -984 242 -162 16 -161 16
-161 -24z"/>
</g>
</svg>
