<svg xmlns="http://www.w3.org/2000/svg" version="1.0" width="600" height="287" viewBox="0 0 600 287" preserveAspectRatio="xMidYMid meet"><default:g xmlns:default="http://www.w3.org/2000/svg" transform="translate(0.000000,287.000000) scale(0.100000,-0.100000)" fill="#000000" stroke="none"><default:path d="M2655 2809 c-407 -42 -824 -162 -1211 -348 -327 -158 -674 -385 -959 -630 -109 -93 -311 -292 -362 -357 l-32 -40 98 -110 c226 -252 619 -560 965 -759 508 -290 1074 -473 1584 -511 l92 -7 0 35 0 35 -72 12 c-671 110 -1443 586 -1958 1208 l-79 96 22 31 c49 69 170 207 268 306 500 506 1165 875 1747 970 l72 12 0 34 0 34 -47 -1 c-27 -1 -84 -5 -128 -10z"/><default:path d="M3160 2786 l0 -34 73 -12 c468 -76 999 -335 1457 -709 186 -152 471 -443 566 -580 12 -17 5 -29 -68 -117 -188 -227 -483 -497 -743 -679 -386 -270 -840 -468 -1207 -526 l-78 -12 0 -33 c0 -40 -1 -40 161 -24 733 73 1477 398 2122 928 131 108 339 308 414 398 l43 52 -103 113 c-215 238 -555 509 -909 726 -141 86 -437 234 -583 291 -331 130 -651 208 -984 242 -162 16 -161 16 -161 -24z"/><default:path d="M2958 2415 c-19 -60 -77 -244 -128 -408 -62 -195 -100 -302 -111 -308 -9 -4 -187 -63 -395 -130 -209 -66 -385 -124 -392 -128 -7 -4 168 -65 395 -137 368 -118 408 -133 414 -155 99 -320 251 -804 253 -806 1 -2 38 111 81 250 43 138 101 326 129 416 l51 164 395 126 c217 70 402 130 410 133 8 3 -106 44 -255 92 -148 48 -333 108 -410 134 l-140 47 -123 390 c-68 215 -127 399 -131 410 -6 16 -16 -5 -43 -90z"/></default:g></svg>