<?xml version="1.0" standalone="no"?>
<svg xmlns="http://www.w3.org/2000/svg" viewBox="0 0 485 490" width="256" height="256">
<g fill="white" stroke="none">
<path d="M 146.00 489.30 c 0.00 -0.30 4.40 -12.00 9.70 -26.00 9.80 -25.30 9.80 -25.30 85.70 -25.10 76.00 0.30 76.00 0.30 85.30 24.30 5.10 13.20 9.50 24.80 9.80 25.80 0.60 1.60 -4.40 1.70 -94.90 1.70 -52.60 0.00 -95.60 -0.30 -95.60 -0.70"/>
<path d="M 350.00 480.90 c 0.00 -0.60 -2.00 -5.90 -4.40 -11.80 -15.00 -35.80 -15.50 -37.50 -11.70 -41.70 10.20 -11.40 96.50 -98.40 97.60 -98.40 1.00 0.00 23.30 9.50 41.90 17.90 6.90 3.10 6.90 3.10 1.50 8.90 -12.50 13.40 -123.50 126.20 -124.10 126.20 -0.50 0.00 -0.80 -0.50 -0.80 -1.10"/>
<path d="M 98.40 446.80 c -81.00 -84.30 -93.80 -97.80 -93.10 -98.40 1.10 -1.20 47.30 -20.40 48.30 -20.20 2.30 0.50 98.40 101.10 98.40 102.90 0.00 2.00 -19.20 49.90 -20.00 49.90 -0.40 0.00 -15.50 -15.40 -33.60 -34.20"/>
<path d="M 460.00 325.00 c -24.50 -10.80 -24.50 -10.80 -24.70 -80.10 -0.30 -69.40 -0.30 -69.40 22.50 -78.70 12.60 -5.10 23.80 -9.60 25.00 -9.90 2.20 -0.50 2.20 -0.50 2.20 89.60 0.00 49.50 -0.10 90.10 -0.20 90.00 -0.20 0.00 -11.30 -4.90 -24.80 -10.90"/>
<path d="M 0.00 243.90 c 0.00 -54.60 0.40 -89.90 0.90 -89.90 0.50 0.00 7.40 2.70 15.30 6.10 7.90 3.30 18.70 7.90 24.10 10.10 9.70 4.20 9.70 4.20 9.50 73.60 -0.30 69.50 -0.30 69.50 -22.30 78.80 -12.00 5.20 -23.20 9.80 -24.70 10.30 -2.80 1.00 -2.80 1.00 -2.80 -89.00"/>
<path d="M 387.30 117.80 c -56.10 -58.00 -56.30 -58.20 -56.30 -59.90 0.00 -1.40 17.10 -45.40 18.90 -48.60 0.60 -1.10 13.00 11.10 49.20 48.40 71.90 73.90 80.10 82.50 79.10 83.50 -0.80 0.80 -41.80 17.60 -46.80 19.20 -1.90 0.60 -8.20 -5.50 -44.10 -42.60"/>
<path d="M 30.10 150.00 c -12.90 -5.50 -23.60 -10.10 -23.70 -10.30 -0.20 -0.20 12.50 -13.60 28.30 -29.80 15.90 -16.20 44.70 -45.80 64.20 -65.80 24.30 -24.80 35.70 -35.80 36.20 -34.90 0.40 0.70 5.10 12.00 10.40 25.10 9.70 23.70 9.70 23.70 -4.10 38.40 -24.20 25.50 -85.60 87.30 -86.80 87.30 -0.60 0.00 -11.60 -4.50 -24.50 -10.00"/>
<path d="M 167.30 49.30 c -0.40 -1.00 -4.80 -12.40 -9.90 -25.30 -9.20 -23.50 -9.20 -23.50 38.30 -23.80 26.10 -0.10 68.50 -0.10 94.30 0.00 46.80 0.30 46.80 0.30 37.20 25.50 -9.70 25.30 -9.70 25.30 -84.50 25.30 -70.30 0.00 -74.80 -0.10 -75.40 -1.70"/>
</g>
</svg>
