<?xml version="1.0" standalone="no"?>
<svg xmlns="http://www.w3.org/2000/svg" viewBox="0 0 857 317" width="256" height="256">
<g fill="white" stroke="none" fill-rule="evenodd">
<path d="m 432.10 1.60 c -2.60 1.00 -5.70 1.30 -7.50 0.90 -8.90 -1.80 -9.40 -1.80 -10.60 0.40 -1.20 2.30 -0.90 55.30 0.30 61.80 0.60 3.20 0.60 3.30 -2.80 3.30 -2.40 -0.00 -3.50 -0.50 -3.50 -1.50 0.00 -1.00 -1.00 -1.50 -3.00 -1.50 -2.00 -0.00 -3.00 0.50 -3.00 1.50 0.00 1.00 -1.00 1.50 -3.00 1.50 -2.00 -0.00 -3.00 -0.50 -3.00 -1.50 0.00 -1.00 -1.00 -1.50 -3.00 -1.50 -2.00 -0.00 -3.00 0.50 -3.00 1.50 0.00 1.00 -1.00 1.50 -3.00 1.50 -2.00 -0.00 -3.00 -0.50 -3.00 -1.50 0.00 -1.00 -1.00 -1.50 -3.00 -1.50 -2.00 -0.00 -3.00 0.50 -3.00 1.50 0.00 1.00 -1.00 1.50 -3.00 1.50 -2.00 -0.00 -3.00 -0.50 -3.00 -1.50 0.00 -1.00 -1.00 -1.50 -3.00 -1.50 -2.00 -0.00 -3.00 0.50 -3.00 1.50 0.00 0.90 -0.90 1.50 -2.50 1.50 -1.40 -0.00 -2.80 -0.70 -3.10 -1.50 -0.40 -0.90 -1.90 -1.50 -3.50 -1.50 -1.90 -0.00 -2.90 0.50 -2.90 1.50 0.00 2.00 -4.90 2.00 -5.60 -0.00 -0.80 -2.00 -6.40 -2.00 -6.40 -0.00 0.00 0.90 -0.90 1.50 -2.50 1.50 -1.40 -0.00 -2.80 -0.70 -3.10 -1.50 -0.40 -0.80 -1.60 -1.50 -2.90 -1.50 -1.30 -0.00 -2.50 0.70 -2.90 1.50 -0.30 0.90 -1.80 1.50 -3.60 1.50 -2.00 -0.00 -3.00 -0.50 -3.00 -1.50 0.00 -1.00 -1.00 -1.50 -3.00 -1.50 -2.00 -0.00 -3.00 0.50 -3.00 1.50 0.00 1.00 -1.00 1.50 -3.00 1.50 -1.70 -0.00 -3.00 -0.50 -3.00 -1.30 0.00 -4.10 -39.00 -7.60 -42.40 -3.80 -0.90 1.00 -1.60 2.50 -1.60 3.40 0.00 0.90 -0.40 1.70 -1.00 1.70 -0.60 -0.00 -1.00 3.20 -1.00 7.50 0.00 7.50 0.00 7.50 -6.50 7.50 -6.50 -0.00 -6.50 -0.00 -5.90 -5.30 1.00 -8.40 -1.20 -11.70 -7.60 -11.70 -7.00 -0.00 -15.20 -1.90 -17.60 -4.10 -4.00 -3.70 -11.20 -2.10 -13.90 3.10 -1.80 3.50 -2.00 12.10 -0.30 13.80 1.00 1.00 1.00 1.70 0.00 3.20 -0.60 1.10 -1.20 2.90 -1.20 4.10 0.00 2.10 -0.30 2.20 -9.50 1.60 -8.60 -0.50 -9.60 -0.40 -10.50 1.30 -0.60 1.00 -1.90 2.20 -3.10 2.50 -1.80 0.60 -2.00 1.30 -1.70 5.10 0.30 3.70 0.00 4.40 -1.40 4.40 -1.00 -0.00 -1.80 0.40 -1.80 0.80 0.00 0.50 -2.80 1.00 -6.30 1.10 -6.20 0.20 -10.70 2.60 -10.70 5.60 0.00 0.60 -1.40 2.40 -3.10 4.10 -2.80 2.60 -3.70 2.90 -11.30 3.20 -10.00 0.50 -12.10 -0.40 -14.50 -6.10 -3.10 -7.10 1.60 -6.70 -69.10 -6.90 -64.40 -0.30 -64.40 -0.30 -65.10 -3.20 -0.80 -2.70 -2.40 -4.50 -4.10 -4.60 -0.50 -0.00 -0.80 32.80 -0.80 73.00 0.00 40.10 0.30 73.00 0.80 73.00 0.40 -0.00 1.80 -1.30 3.20 -2.90 2.50 -3.00 2.50 -3.00 45.90 -3.70 53.00 -0.80 49.20 0.40 47.10 -15.10 -1.10 -8.90 -1.10 -10.50 0.30 -14.80 4.10 -12.00 8.80 -14.60 39.70 -21.90 12.90 -3.10 28.90 -7.00 35.50 -8.70 7.20 -1.80 14.30 -3.00 17.80 -2.90 5.70 0.10 5.70 0.10 5.70 -3.40 0.00 -2.00 0.40 -3.60 0.90 -3.60 0.50 -0.00 0.80 2.40 0.70 5.20 -0.50 8.70 -0.30 8.80 13.30 8.80 9.30 -0.00 12.10 0.30 13.10 1.50 1.00 1.10 3.60 1.50 11.10 1.50 8.80 -0.00 9.90 0.20 10.90 2.00 0.60 1.10 1.70 2.00 2.40 2.00 2.50 -0.00 5.80 4.80 6.30 9.20 0.40 4.00 -0.30 5.60 -12.30 25.80 -7.00 11.80 -15.00 25.50 -17.80 30.30 -3.90 6.80 -6.00 9.30 -8.80 10.80 -4.60 2.40 -5.70 5.30 -3.10 8.80 1.60 2.10 4.30 3.20 13.90 5.70 6.50 1.80 18.10 4.80 25.80 6.90 8.10 2.20 14.80 3.40 16.20 3.10 3.50 -0.90 4.80 -4.90 2.90 -8.60 -0.80 -1.60 -1.50 -3.40 -1.50 -3.90 0.00 -1.40 26.70 -61.20 27.80 -62.30 0.60 -0.60 1.80 0.50 3.00 2.60 3.80 6.40 6.30 7.10 27.20 7.10 21.10 -0.00 23.60 -0.70 27.70 -8.10 2.00 -3.40 2.30 -5.40 2.30 -15.20 0.00 -10.40 0.10 -11.20 1.90 -11.20 2.90 -0.00 5.10 -3.90 5.10 -9.00 0.00 -3.30 0.50 -5.00 2.00 -6.30 1.10 -0.90 2.00 -2.80 2.00 -4.10 0.00 -2.10 0.50 -2.40 4.00 -2.80 4.00 -0.40 4.00 -0.40 4.00 10.00 0.00 9.60 0.10 10.30 1.80 9.60 0.90 -0.50 21.70 -0.90 46.20 -0.90 l 44.50 -0.10 -44.20 0.60 c -40.10 0.50 -44.40 0.70 -46.30 2.20 -3.00 2.60 -3.20 127.40 -0.20 130.10 2.70 2.50 90.50 2.60 94.00 0.10 2.20 -1.50 2.20 -1.50 2.20 -65.00 0.00 -63.40 0.00 -63.40 -2.20 -65.60 -1.60 -1.60 -1.70 -2.00 -0.50 -1.50 1.50 0.60 1.70 -0.40 1.70 -9.30 0.00 -10.00 0.00 -10.00 4.50 -10.00 4.50 -0.00 4.50 -0.00 4.50 4.00 0.00 2.20 0.40 4.00 0.90 4.00 0.40 -0.00 1.20 1.50 1.70 3.20 1.00 3.30 1.00 3.30 12.90 3.80 11.00 0.50 12.00 0.70 12.00 2.40 0.00 1.00 -0.80 2.00 -1.70 2.20 -1.00 0.10 -1.80 -0.20 -1.80 -0.70 0.00 -0.50 -0.80 -0.90 -1.90 -0.90 -1.50 -0.00 -1.90 1.00 -2.40 5.60 -0.80 7.50 1.50 13.10 3.80 9.40 1.20 -2.00 4.80 -1.20 4.20 1.00 -0.90 3.40 10.30 2.90 12.90 -0.50 1.90 -2.50 1.90 -2.50 55.60 -2.50 47.20 -0.00 53.80 0.20 53.80 1.50 0.00 1.20 1.30 1.50 6.00 1.50 3.30 -0.00 6.00 0.40 6.00 1.00 0.00 1.60 4.00 1.20 4.60 -0.50 0.40 -0.80 1.20 -1.50 2.00 -1.50 0.80 -0.00 1.40 -0.70 1.40 -1.50 0.00 -1.90 5.40 -2.00 11.20 -0.10 2.40 0.80 8.10 1.60 12.60 1.80 8.10 0.50 8.40 0.40 9.30 -1.90 2.20 -5.80 0.50 -15.30 -2.60 -15.30 -1.00 -0.00 -1.50 -1.10 -1.50 -3.50 0.00 -1.90 0.50 -3.50 1.00 -3.50 0.60 -0.00 1.00 -2.00 1.00 -4.50 0.00 -3.10 0.50 -4.70 1.50 -5.10 0.80 -0.40 1.50 -1.50 1.50 -2.50 0.00 -1.80 1.00 -1.90 16.00 -1.90 10.00 -0.00 16.00 -0.40 16.00 -1.00 0.00 -0.60 2.70 -1.00 6.00 -1.00 3.30 -0.00 6.00 0.40 6.00 1.00 0.00 0.50 1.50 1.00 3.40 1.00 3.90 -0.00 5.60 -3.10 5.60 -10.00 0.00 -6.90 -1.70 -10.00 -5.60 -10.00 -1.90 -0.00 -3.40 0.40 -3.40 1.00 0.00 0.50 -2.50 1.00 -5.50 1.00 -6.50 -0.00 -8.00 -2.00 -6.90 -9.10 0.70 -3.90 0.70 -3.90 43.40 -3.90 41.90 -0.00 42.80 -0.00 43.30 2.00 0.60 2.30 9.40 2.90 11.50 0.80 0.90 -0.90 1.20 -0.90 1.20 -0.00 0.00 0.90 4.60 1.20 17.80 1.20 21.80 -0.00 21.20 0.30 21.20 -11.90 0.00 -13.00 2.00 -12.10 -26.60 -12.10 -20.80 -0.00 -24.50 0.20 -25.00 1.50 -0.50 1.30 -6.30 1.50 -43.50 1.50 -42.90 -0.00 -42.90 -0.00 -42.90 -2.50 0.00 -2.00 -0.50 -2.50 -2.50 -2.50 -2.40 -0.00 -2.50 -0.20 -2.60 -7.30 -0.10 -3.90 -0.40 -13.30 -0.80 -20.70 -0.60 -13.50 -0.60 -13.50 -7.60 -13.50 -7.00 -0.00 -7.00 -0.00 -7.60 13.50 -0.40 7.40 -0.70 16.70 -0.80 20.70 -0.10 6.60 -0.30 7.20 -2.30 7.50 -1.50 0.20 -2.40 1.10 -2.60 2.50 -0.30 2.30 -0.50 2.30 -16.70 2.30 -16.40 -0.00 -16.40 -0.00 -16.80 7.70 -0.10 4.30 -0.40 0.80 -0.50 -7.70 -0.20 -17.40 -0.50 -18.00 -6.50 -18.00 -3.40 -0.00 -3.90 0.30 -3.40 2.00 0.40 1.80 0.00 2.00 -3.50 2.00 -3.50 -0.00 -3.90 -0.20 -3.30 -2.00 0.60 -1.70 0.20 -2.00 -3.00 -2.00 -3.20 -0.00 -3.60 0.30 -3.00 2.00 0.60 1.70 0.20 2.00 -2.90 2.00 -2.90 -0.00 -3.60 -0.40 -3.60 -2.00 0.00 -1.60 -0.70 -2.00 -3.60 -2.00 -3.10 -0.00 -3.50 0.30 -2.90 2.00 0.60 1.70 0.20 2.00 -3.00 2.00 -3.20 -0.00 -3.60 -0.30 -3.00 -2.00 0.60 -1.80 0.20 -2.00 -3.30 -2.00 -4.70 -0.00 -5.80 0.80 -3.40 2.60 1.50 1.20 1.20 1.30 -2.40 1.40 -3.30 -0.00 -4.30 -0.40 -4.70 -2.00 -0.40 -1.60 -1.40 -2.00 -5.20 -2.00 -4.20 -0.00 -4.60 0.20 -4.00 2.00 0.60 1.80 0.20 2.00 -3.70 1.90 -2.40 -0.00 -3.70 -0.30 -3.00 -0.60 3.00 -1.20 1.10 -3.30 -2.90 -3.30 -3.60 -0.00 -4.10 0.20 -3.60 2.00 0.40 1.70 0.00 2.00 -3.00 2.00 -3.00 -0.00 -3.40 -0.30 -2.80 -2.00 0.60 -1.80 0.20 -2.00 -3.00 -2.00 -3.20 -0.00 -3.70 0.30 -3.20 2.00 0.50 1.80 0.00 2.00 -3.60 2.00 -3.20 -0.00 -3.80 -0.30 -2.90 -1.20 2.10 -2.10 1.30 -2.80 -2.90 -2.80 -3.60 -0.00 -4.00 0.20 -3.40 2.00 0.60 1.70 0.20 2.00 -3.00 2.00 -3.20 -0.00 -3.60 -0.30 -3.00 -2.00 0.60 -1.80 0.20 -2.00 -3.90 -2.00 -4.70 -0.00 -5.50 0.70 -3.40 2.80 0.90 0.90 0.30 1.20 -3.00 1.20 -2.30 -0.00 -4.20 -0.50 -4.20 -1.00 0.00 -0.60 0.70 -1.00 1.50 -1.00 0.80 -0.00 1.50 -0.50 1.50 -1.00 0.00 -0.60 -0.80 -1.00 -1.90 -1.00 -1.40 -0.00 -1.70 -0.60 -1.40 -2.40 0.60 -2.90 -1.20 -6.60 -3.20 -6.60 -0.80 -0.00 -1.50 -0.50 -1.50 -1.00 0.00 -0.60 0.40 -1.00 0.90 -1.00 0.40 -0.00 2.10 -1.80 3.60 -4.00 4.70 -6.80 5.50 -12.80 5.50 -42.60 0.00 -30.20 -0.20 -31.20 -5.80 -30.00 -1.80 0.30 -4.50 0.90 -6.20 1.20 -1.90 0.40 -4.80 -0.20 -8.50 -1.70 -5.00 -2.10 -6.00 -2.20 -9.80 -1.00 -7.70 2.30 -10.20 2.40 -15.00 0.20 -5.60 -2.50 -7.50 -2.60 -13.80 -0.40 -4.70 1.70 -5.00 1.70 -11.80 -0.70 -6.70 -2.30 -7.00 -2.30 -11.30 -0.70 -5.30 2.10 -9.00 2.10 -12.60 0.30 -4.60 -2.30 -8.50 -2.60 -13.10 -1.00 m -2.70 25.90 c 2.30 1.70 8.80 2.00 11.60 0.50 1.40 -0.70 2.90 -0.60 5.50 0.70 3.10 1.50 4.10 1.50 7.80 0.40 8.00 -2.40 9.60 -2.40 15.30 -0.00 5.10 2.00 6.10 2.10 9.80 1.00 7.80 -2.40 11.00 -2.40 15.70 -0.10 3.90 2.10 4.80 2.20 9.10 1.10 3.80 -1.00 5.40 -1.00 8.30 -0.00 3.00 1.10 4.20 1.10 8.10 -0.40 4.50 -1.70 4.70 -1.60 8.60 0.50 4.00 2.30 4.00 2.30 3.60 18.80 -0.30 16.40 -0.30 16.50 -3.60 22.70 -3.20 6.30 -3.20 6.30 -10.00 6.30 -4.90 -0.00 -7.60 0.50 -10.00 2.00 -1.80 1.10 -4.70 2.00 -6.50 2.00 -1.70 -0.00 -3.70 0.40 -4.30 0.80 -1.80 1.10 -2.60 6.20 -1.30 7.80 1.00 1.20 0.20 1.40 -4.50 1.40 -4.00 -0.00 -5.60 -0.40 -5.50 -1.30 0.30 -2.80 -0.20 -3.80 -2.60 -4.70 -1.50 -0.60 -2.50 -1.70 -2.50 -3.00 0.00 -1.10 -0.70 -2.00 -1.50 -2.00 -0.90 -0.00 -1.50 -0.90 -1.50 -2.40 0.00 -3.70 -2.60 -5.60 -7.40 -5.60 -4.90 -0.00 -6.60 1.30 -6.60 5.20 0.00 2.60 -0.20 2.80 -4.40 2.80 -3.00 -0.00 -4.60 -0.50 -5.00 -1.50 -0.30 -0.80 -1.30 -1.50 -2.30 -1.50 -1.00 -0.00 -2.30 -1.00 -2.80 -2.30 -0.90 -2.00 -1.80 -2.20 -9.20 -2.50 -4.60 -0.20 -8.30 -0.70 -8.30 -1.10 0.00 -0.50 -1.00 -1.10 -2.30 -1.50 -3.40 -0.80 -8.50 -6.40 -9.70 -10.40 -0.50 -2.10 -1.00 -9.90 -1.00 -17.50 0.00 -13.20 0.10 -14.00 2.30 -15.80 2.70 -2.20 4.60 -2.30 7.10 -0.40 m -219.60 63.20 c 0.20 0.80 -0.60 1.30 -2.20 1.30 -2.50 -0.00 -3.30 -1.00 -1.90 -2.40 1.00 -1.00 3.60 -0.30 4.10 1.10 m 497.70 0.60 c 2.60 2.00 1.30 6.70 -1.90 6.70 -3.70 -0.00 -5.20 -2.50 -3.20 -5.50 1.90 -2.90 2.50 -3.00 5.10 -1.20 m -280.70 6.20 c 0.30 1.90 -0.20 2.00 -13.00 1.70 -11.80 -0.30 -13.40 -0.10 -14.70 1.50 -1.30 1.70 -1.30 1.70 -0.70 -0.00 0.30 -1.00 0.60 -2.50 0.60 -3.20 0.00 -1.90 2.80 -2.30 16.00 -2.10 10.70 0.10 11.50 0.20 11.80 2.10 m 97.20 -1.50 c 0.00 0.50 -1.20 1.00 -2.70 0.90 -2.80 -0.10 -2.80 -0.10 -0.30 -0.90 1.40 -0.40 2.60 -0.80 2.80 -0.90 0.10 -0.10 0.20 0.30 0.20 0.90 m -20.70 0.70 c -1.30 0.20 -3.30 0.20 -4.50 -0.00 -1.30 -0.20 -0.30 -0.40 2.20 -0.40 2.50 -0.00 3.50 0.20 2.30 0.40 m 10.50 -0.00 c -1.00 0.20 -2.60 0.20 -3.50 -0.00 -1.00 -0.30 -0.20 -0.50 1.70 -0.50 1.90 -0.00 2.70 0.20 1.80 0.50 m -217.80 13.30 c 35.70 -0.00 65.10 0.30 65.30 0.70 0.30 0.50 -28.90 0.70 -64.80 0.50 -65.40 -0.20 -65.40 -0.20 -65.80 2.50 -0.20 1.70 -0.40 1.10 -0.50 -1.70 0.00 -2.50 0.20 -3.90 0.50 -3.30 0.40 1.00 14.40 1.30 65.30 1.30 m 549.50 5.00 c 0.00 1.20 -1.80 1.60 -8.90 1.80 -8.70 0.30 -11.50 -0.50 -10.10 -2.70 1.10 -1.90 19.00 -1.00 19.00 0.90 m -380.40 5.00 c 2.40 1.30 2.40 3.20 0.00 5.40 -2.80 2.60 -7.50 1.80 -7.90 -1.30 -0.60 -4.10 3.70 -6.30 7.90 -4.10 m 380.90 4.50 c 0.00 1.70 -1.50 1.90 -12.00 1.60 -8.10 -0.30 -8.50 -0.40 -7.50 -2.00 1.10 -1.80 19.50 -1.40 19.50 0.40 m -339.00 1.50 c 0.00 0.50 -2.20 1.00 -4.90 1.00 -2.80 -0.00 -5.30 -0.50 -5.60 -1.00 -0.40 -0.60 1.50 -1.00 4.90 -1.00 3.10 -0.00 5.60 0.40 5.60 1.00 m 14.50 -0.00 c 0.40 0.60 -1.20 1.00 -3.90 1.00 -2.50 -0.00 -4.60 -0.50 -4.60 -1.00 0.00 -0.60 1.80 -1.00 3.90 -1.00 2.20 -0.00 4.30 0.40 4.60 1.00 m 22.00 -0.00 c 0.40 0.60 -2.50 1.00 -8.00 1.00 -5.50 -0.00 -8.40 -0.40 -8.00 -1.00 0.30 -0.60 3.90 -1.00 8.00 -1.00 4.10 -0.00 7.70 0.40 8.00 1.00 m 12.50 -0.00 c 0.00 0.50 -1.80 1.00 -4.10 1.00 -2.40 -0.00 -3.80 -0.40 -3.40 -1.00 0.30 -0.60 2.20 -1.00 4.10 -1.00 1.90 -0.00 3.40 0.40 3.40 1.00 m 14.50 -0.00 c 0.40 0.60 -1.30 1.00 -4.50 1.00 -3.20 -0.00 -4.90 -0.40 -4.50 -1.00 0.30 -0.60 2.40 -1.00 4.50 -1.00 2.10 -0.00 4.20 0.40 4.50 1.00 m 16.00 -0.00 c 0.40 0.60 -1.50 1.00 -5.00 1.00 -3.50 -0.00 -5.40 -0.40 -5.00 -1.00 0.30 -0.60 2.60 -1.00 5.00 -1.00 2.40 -0.00 4.70 0.40 5.00 1.00 m 10.00 -0.00 c 0.40 0.60 -0.70 1.00 -2.40 1.00 -1.70 -0.00 -3.10 -0.50 -3.10 -1.00 0.00 -0.60 1.10 -1.00 2.40 -1.00 1.40 -0.00 2.80 0.40 3.10 1.00 m 12.50 -0.00 c 0.00 0.50 -2.10 1.00 -4.60 1.00 -2.70 -0.00 -4.30 -0.40 -3.90 -1.00 0.30 -0.60 2.40 -1.00 4.60 -1.00 2.10 -0.00 3.90 0.40 3.90 1.00 m 17.00 -0.00 c 0.00 0.50 -2.20 1.00 -5.00 1.00 -2.70 -0.00 -5.00 -0.50 -5.00 -1.00 0.00 -0.60 2.30 -1.00 5.00 -1.00 2.80 -0.00 5.00 0.40 5.00 1.00 m 21.00 -0.00 c 0.00 0.60 -3.70 1.00 -9.00 1.00 -5.30 -0.00 -9.00 -0.40 -9.00 -1.00 0.00 -0.60 3.70 -1.00 9.00 -1.00 5.30 -0.00 9.00 0.40 9.00 1.00 m 44.40 4.20 c 0.30 1.30 0.60 4.00 0.60 6.00 0.00 3.40 -0.30 3.80 -2.50 3.80 -1.80 -0.00 -2.50 -0.50 -2.50 -2.00 0.00 -1.10 -0.40 -2.00 -1.00 -2.00 -0.50 -0.00 -1.00 -0.70 -1.00 -1.50 0.00 -1.20 -1.70 -1.50 -9.00 -1.50 -8.90 -0.00 -9.00 -0.00 -9.00 2.50 0.00 2.50 -2.30 3.50 -3.50 1.50 -0.30 -0.60 -1.70 -1.00 -3.10 -1.00 -2.10 -0.00 -2.40 -0.40 -2.40 -4.00 0.00 -4.00 0.00 -4.00 16.40 -4.00 16.10 -0.00 16.40 -0.00 17.00 2.20 m -328.40 3.30 c -0.80 1.00 -2.80 1.40 -5.40 1.30 -4.10 -0.10 -4.10 -0.10 -0.10 -0.50 2.20 -0.30 4.40 -0.90 5.00 -1.40 1.50 -1.50 1.90 -1.00 0.50 0.60 m -177.30 7.20 c -0.20 1.60 -0.40 0.50 -0.40 -2.20 0.00 -2.80 0.20 -4.00 0.40 -2.80 0.20 1.30 0.20 3.50 0.00 5.00 m 131.10 -6.00 c -14.20 0.20 -37.40 0.20 -51.50 -0.00 -14.20 -0.10 -2.60 -0.20 25.70 -0.20 28.30 -0.00 39.90 0.10 25.80 0.20 m -92.50 2.40 c 3.80 3.50 -0.60 5.80 -11.30 5.90 -8.70 -0.00 -11.00 -0.80 -11.00 -4.00 0.00 -3.20 2.30 -4.00 11.20 -4.00 7.60 -0.00 9.20 0.30 11.10 2.10 m 395.50 1.00 c 0.40 3.10 -2.00 5.30 -4.70 4.40 -4.70 -1.50 -3.10 -7.90 1.80 -7.30 2.00 0.20 2.70 0.90 2.90 2.90 m -179.00 1.60 c -1.00 0.20 -2.80 0.20 -4.00 -0.00 -1.30 -0.20 -0.50 -0.40 1.70 -0.40 2.20 -0.10 3.20 0.10 2.30 0.40 m -27.00 3.00 c -1.00 0.20 -2.60 0.20 -3.50 -0.00 -1.00 -0.30 -0.20 -0.50 1.70 -0.50 1.90 -0.00 2.70 0.20 1.80 0.50 m 26.50 -0.00 c -4.00 0.20 -10.70 0.20 -15.00 -0.00 -4.30 -0.10 -1.00 -0.30 7.20 -0.30 8.30 -0.00 11.80 0.20 7.80 0.30 m -86.70 9.80 c 0.80 3.10 -1.00 5.50 -4.20 5.50 -2.50 -0.00 -4.20 -3.60 -3.00 -6.50 1.00 -2.70 6.50 -1.90 7.20 1.00 m 313.40 11.20 c 0.00 5.30 1.00 8.30 2.60 8.30 0.90 -0.00 1.40 1.10 1.40 2.90 0.00 4.10 -0.90 6.10 -2.60 5.40 -0.80 -0.30 -1.40 0.10 -1.40 1.10 0.00 1.10 -0.90 1.60 -3.00 1.60 -1.60 -0.00 -3.00 0.40 -3.00 1.00 0.00 1.50 -5.70 1.20 -7.30 -0.50 -0.80 -0.70 -2.60 -1.70 -4.10 -2.10 -2.80 -0.70 -3.60 -2.40 -1.00 -2.40 1.90 -0.00 7.50 -5.10 6.80 -6.20 -0.30 -0.40 0.20 -0.80 1.00 -0.80 1.20 -0.00 1.60 -1.10 1.60 -4.40 0.00 -4.00 0.20 -4.30 2.40 -3.90 1.70 0.40 2.50 -0.00 2.90 -1.60 0.90 -3.80 3.70 -2.50 3.70 1.60 m -167.50 -1.40 c 2.60 2.00 1.30 6.70 -1.80 6.70 -2.70 -0.00 -4.70 -1.70 -4.70 -4.00 0.00 -3.60 3.30 -4.90 6.50 -2.70 m 154.20 2.40 c 0.40 1.00 -0.20 2.30 -1.70 3.50 -2.10 1.70 -2.40 1.70 -4.10 0.20 -2.30 -2.10 -2.40 -3.20 -0.30 -5.50 1.80 -2.00 5.00 -1.10 6.10 1.80 m -409.40 -1.00 c -2.90 0.20 -7.70 0.20 -10.50 -0.00 -2.90 -0.20 -0.60 -0.30 5.20 -0.30 5.80 -0.00 8.10 0.10 5.30 0.30 m 35.50 -0.00 c -4.30 0.20 -11.30 0.20 -15.50 -0.00 -4.30 -0.10 -0.80 -0.30 7.70 -0.30 8.50 -0.00 12.00 0.20 7.80 0.30 m 44.50 -0.00 c -2.30 0.20 -6.40 0.20 -9.00 -0.00 -2.60 -0.20 -0.70 -0.30 4.20 -0.30 5.00 -0.00 7.10 0.10 4.80 0.30 m 139.70 -0.30 c 0.00 0.90 -4.00 1.30 -4.60 0.50 -0.30 -0.50 0.60 -0.90 2.00 -0.90 1.40 -0.00 2.60 0.20 2.60 0.40 m -153.90 7.60 c 2.30 1.30 2.50 5.20 0.40 7.00 -2.50 2.10 -6.50 0.40 -6.50 -2.80 0.00 -4.50 2.40 -6.10 6.10 -4.20 m 321.90 8.90 c 0.00 0.50 0.30 1.60 0.60 2.50 0.60 1.40 -4.60 1.60 -53.40 1.60 -47.10 -0.00 -54.10 -0.20 -54.60 -1.50 -0.30 -0.90 0.00 -1.50 0.90 -1.50 0.80 -0.00 1.50 -0.50 1.50 -1.00 0.00 -0.70 18.20 -1.00 52.50 -1.00 31.20 -0.00 52.50 0.40 52.50 0.90 m -279.20 18.30 c -0.30 11.00 -0.30 11.00 -3.60 13.90 -3.20 2.90 -3.20 2.90 -21.10 2.90 -17.80 -0.00 -18.00 -0.00 -21.00 -2.60 -3.00 -2.50 -3.10 -2.80 -3.10 -11.60 0.00 -8.60 0.10 -9.10 2.90 -11.90 4.10 -4.00 6.10 -3.80 6.10 0.60 0.00 1.90 0.50 3.50 1.00 3.50 0.60 -0.00 1.00 2.00 1.00 4.50 0.00 5.50 1.90 10.20 5.30 13.40 3.60 3.30 5.30 1.80 2.70 -2.30 -3.70 -6.10 -2.80 -12.80 2.40 -18.10 4.50 -4.40 4.50 -4.40 14.30 -4.70 14.00 -0.40 13.50 -0.90 13.10 12.40"/>
</g>
</svg>
