<?xml version="1.0" encoding="UTF-8"?>
<svg xmlns="http://www.w3.org/2000/svg" width="106" height="160" viewBox="0 0 106 160" preserveAspectRatio="xMidYMid meet">
  <defs>
    <mask id="injector-window" maskUnits="userSpaceOnUse" x="0" y="0" width="106" height="160">
      <rect width="106" height="160" fill="#ffffff"/>
      <path d="M45 65h16v28H45z" fill="#000000"/>
      <path d="M49 73h8M49 83h8" stroke="#ffffff" stroke-width="3" stroke-linecap="round"/>
    </mask>
  </defs>
  <g fill="#ffffff">
    <path d="M40 13h26l5 10-5 10H40l-5-10 5-10Z"/>
    <path d="M31 29h44l7 10-7 10H31l-7-10 7-10Z"/>
    <path mask="url(#injector-window)" d="M35 45h36l7 9v61l-7 9H35l-7-9V54l7-9Z"/>
    <path d="M28 61H12l-8 9 8 9h16v-18ZM78 61h16l8 9-8 9H78v-18Z"/>
    <path d="M34 117h38l5 10-7 13H36l-7-13 5-10Z"/>
    <path d="M42 137h22l4 9-7 11H45l-7-11 4-9Z"/>
  </g>
</svg>
